<?xml version="1.0" standalone="no" ?>
<!DOCTYPE SVG PUBLIC "-//W3C//DTD SVG 1.1//EN" "http://www.w3.org/Graphics/SVG/1.1/DTD/svg11.dtd">

<svg xmlns="http://www.w3.org/2000/svg" currentScale="0.4">
    <iconset grid="32"></iconset>
    <path style="fill: #ffffff;" d="M 58.1768 26.8291 C 58.4765 26.8333 58.76 27.013 58.8772 27.307 L 59.8471 29.6912 C 60.0073 30.0877 59.8173 30.5318 59.4253 30.6925 L 49.083 34.9019 C 48.6897 35.064 48.2417 34.8752 48.083 34.4833 L 47.1115 32.0945 C 46.9502 31.703 47.1402 31.2565 47.5334 31.0976 L 57.8772 26.8857 C 57.9752 26.8458 58.0769 26.8277 58.1768 26.8291 Z M 57.1679 24.6831 C 57.5464 24.6891 57.9048 24.9169 58.0553 25.2904 L 58.373 26.0657 C 58.1138 26.0286 57.8415 26.054 57.584 26.1575 L 47.2348 30.3683 C 46.4457 30.6919 46.0629 31.5988 46.3858 32.3924 L 47.3192 34.6899 L 45.7919 35.3083 C 45.4965 35.4307 45.1801 35.3819 44.9261 35.2224 L 34.7293 39.3734 C 34.5289 39.4535 34.3151 39.4203 34.1434 39.3167 L 29.323 38.9736 L 32.5393 35.3591 C 32.5836 35.1657 32.7111 34.9926 32.9089 34.9145 L 43.1122 30.7596 C 43.1852 30.4712 43.3727 30.2146 43.6694 30.0943 L 56.7897 24.7539 C 56.9133 24.7038 57.0418 24.6811 57.1679 24.6831 Z M 42.0666 16.7102 C 41.6573 16.7287 41.2655 16.9888 41.1039 17.5301 C 40.5296 19.4448 40.5129 20.1668 40.268 21.495 C 39.2107 20.909 38.1561 19.9018 37.1194 19.256 C 36.5361 18.8907 35.6899 19.1714 35.4451 19.9604 C 35.0832 21.1349 35.4347 22.2794 35.4894 23.3973 C 34.1951 22.7645 32.9894 22.0151 31.8332 21.1108 C 31.074 20.5177 30.1625 21.0522 29.9462 21.8751 C 29.4632 23.7052 29.0832 26.6564 29.2587 28.5307 C 29.4061 30.0478 31.7446 29.7671 31.6025 28.2593 C 31.5036 27.211 31.8436 24.9364 31.9217 23.8993 C 33.1847 24.7215 34.5727 25.6323 35.9906 26.1981 C 36.535 26.4181 37.3473 26.1993 37.535 25.5743 C 37.8368 24.5444 37.518 23.1297 37.4295 22.1225 C 38.3852 22.7925 39.4125 23.8263 40.5545 24.211 C 41.1625 24.4188 41.8356 24.2124 42.0973 23.5893 C 42.7977 21.92 42.9515 20.2169 43.2743 18.4501 C 43.4794 17.3201 42.7487 16.6794 42.0666 16.7102 Z M 39.4555 8.21623 L 7.73542 21.0418 L 8.62239 23.2333 L 40.3368 10.4077 Z M 41.8852 0 L 51.398 23.521 L 9.513 40.456 L 0 16.9383 Z" />
</svg>
